<?xml version="1.0" ?><!DOCTYPE svg  PUBLIC '-//W3C//DTD SVG 1.1//EN'  'http://www.w3.org/Graphics/SVG/1.1/DTD/svg11.dtd'><svg height="128px" id="Layer_1" style="enable-background:new 0 0 127.999 128;" version="1.1" viewBox="0 0 127.999 128" width="127.999px" xml:space="preserve" xmlns="http://www.w3.org/2000/svg" xmlns:xlink="http://www.w3.org/1999/xlink"><style type="text/css">
<![CDATA[
	.st0{fill:#231F20;}
]]>
</style><g><path class="st0" d="M64.053,75.321c6.188,0,11.207-4.861,11.207-10.855c0-6-5.02-10.857-11.207-10.857   c-6.186,0-11.203,4.857-11.203,10.857C52.85,70.459,57.867,75.321,64.053,75.321z"/><path class="st0" d="M76.748,53.924h6.305c1.381,0,2.512-1.131,2.512-2.514v-6.009c0-1.383-1.131-2.516-2.512-2.516h-6.305   c-1.385,0-2.512,1.133-2.512,2.516v6.009C74.236,52.793,75.363,53.924,76.748,53.924z"/><path class="st0" d="M81.398,65.072c0,9.276-7.768,16.802-17.346,16.802c-9.576,0-17.342-7.525-17.342-16.802   c0-1.667,0.254-3.271,0.719-4.79h-5.123V83.85c0,1.221,0.996,2.213,2.217,2.213h38.848c1.223,0,2.219-0.992,2.219-2.213V60.282   h-4.91C81.146,61.801,81.398,63.405,81.398,65.072z"/><path class="st0" d="M63.998,7.989c-30.883,0-56.008,25.126-56.008,56.01c0,30.885,25.125,56.012,56.008,56.012   c30.885,0,56.012-25.127,56.012-56.012C120.01,33.115,94.883,7.989,63.998,7.989z M91.896,85.319c0,3.938-3.223,7.158-7.16,7.158   H43.268c-3.938,0-7.162-3.22-7.162-7.158V43.852c0-3.94,3.225-7.162,7.162-7.162h41.469c3.938,0,7.16,3.222,7.16,7.162V85.319z"/></g></svg>